  <svg width="350" height="330" viewBox="0 0 350 330" fill="none" xmlns="http://www.w3.org/2000/svg">
    <g id="from">
      <g id="clouds">
        <g id="cloud_right" opacity="0">
          <animateMotion id="a_motion_cloud_right" values="0,0; -200,0;" keyTimes="0;1" dur="2s" begin="a_motion_cloud_left.end - 600ms" calcMode="linear" />
          <animate attributeType="CSS" attributeName="opacity" values="0; 1; 1; 0" keyTimes="0; 0.3; 0.8; 1" dur="2s" begin="a_motion_cloud_right.begin" fill="freeze" />
          <path id="Vector" d="M258.96 93.19H298.74" stroke="white" stroke-width="2" stroke-miterlimit="10" stroke-linecap="round" />
          <g id="cloud_right_top">
            <animateTransform attributeName="transform" type="translate" values="20 0; 0 0" dur="2s" begin="a_motion_cloud_right.begin" />
            <path id="Vector_2" d="M278.75 82.91H251.39C251.39 79.6213 250.084 76.4673 247.758 74.1419C245.433 71.8164 242.279 70.51 238.99 70.51C235.701 70.51 232.547 71.8164 230.222 74.1419C227.896 76.4673 226.59 79.6213 226.59 82.91H208.65" stroke="white" stroke-width="2" stroke-miterlimit="10" stroke-linecap="round" />
            <path id="Vector_3" d="M287.01 82.91H309.21" stroke="white" stroke-width="2" stroke-miterlimit="10" stroke-linecap="round" />
          </g>
        </g>
        <g id="cloud_left" opacity="0">
          <animateMotion id="a_motion_cloud_left" values="150,0; -70,0;" keyTimes="0;1" dur="2s" begin="a_airship_and_mounts.begin + 66ms" calcMode="linear" />
          <animate attributeType="CSS" attributeName="opacity" values="0; 1; 1; 0" keyTimes="0; 0.2; 0.8; 1" dur="2s" begin="a_motion_cloud_left.begin" fill="freeze" />
          <path id="Vector_4" d="M68.95 107.8H131.86" stroke="white" stroke-width="2" stroke-miterlimit="10" stroke-linecap="round" />
          <g id="cloud_left_top">
            <animateTransform attributeName="transform" type="translate" values="20 0; 0 0" dur="1333ms" begin="a_motion_cloud_left.begin" />
            <path d="M41.77 97.54H77.06C77.06 94.2513 78.3664 91.0973 80.6919 88.7719C83.0173 86.4464 86.1713 85.14 89.46 85.14C92.7487 85.14 95.9027 86.4464 98.2281 88.7719C100.554 91.0973 101.86 94.2513 101.86 97.54H119.79" stroke="white" stroke-width="2" stroke-miterlimit="10" stroke-linecap="round" />
          </g>
        </g>
      </g>
      <g id="airship_and_mounts">
        <animate id="a_airship_and_mounts" attributeType="CSS" attributeName="opacity" values="0;1" dur="366ms" />
        <animate attributeName="opacity" fill="freeze" begin="a_motion_cloud_right.end - 500ms" from="1" to="0" dur="500ms" />
        <g id="airship">
          <g id="airship_cabin">
            <animateTransform attributeName="transform" type="translate" values="206 234" />
            <animateTransform attributeName="transform" type="scale" values="1 0.8; 1 1; 1 0.8" keySplines="0 0 0.58 1; 0 0 0.58 1" calcMode="spline" dur="2s" additive="sum" repeatCount="indefinite" />
            <animateTransform attributeName="transform" type="skewX" values="5; 0; 5;" keySplines="0 0 0.58 1; 0 0 0.58 1" calcMode="spline" dur="2s" additive="sum" repeatCount="indefinite" />
            <animateTransform attributeName="transform" type="translate" values="-206 -234" additive="sum" />
            <path d="M175.44 249.28H223.8C226.863 249.278 229.831 248.216 232.201 246.275C234.57 244.334 236.195 241.633 236.8 238.63L240.54 220.31H172.36V246.2C172.363 247.016 172.688 247.798 173.265 248.375C173.842 248.952 174.624 249.277 175.44 249.28V249.28Z" stroke="white" stroke-width="2" stroke-linecap="round" stroke-linejoin="round" />
            <path d="M235.79 241.69H226.57C224.371 241.682 222.265 240.803 220.713 239.245C219.161 237.688 218.29 235.579 218.29 233.38V220.31" stroke="white" stroke-width="2" stroke-miterlimit="10" stroke-linecap="round" />
            <path id="window" d="M204.25 231.88H202.2C201.288 231.885 200.416 232.251 199.773 232.898C199.131 233.544 198.77 234.418 198.77 235.33V238.25C198.77 239.162 199.131 240.036 199.773 240.682C200.416 241.329 201.288 241.695 202.2 241.7H204.25C205.162 241.695 206.034 241.329 206.677 240.682C207.319 240.036 207.68 239.162 207.68 238.25V235.33C207.681 234.878 207.594 234.431 207.422 234.013C207.25 233.595 206.998 233.215 206.68 232.895C206.361 232.574 205.983 232.32 205.566 232.146C205.149 231.972 204.702 231.881 204.25 231.88V231.88Z" stroke="white" stroke-width="2" stroke-linecap="round" stroke-linejoin="round">
              <animate attributeName="opacity" fill="freeze" begin="a_motion_cloud_right.end" from="1" to="0" dur="100ms" />
            </path>
            <path d="M185.64 231.88H183.59C182.678 231.885 181.806 232.251 181.163 232.898C180.521 233.544 180.16 234.418 180.16 235.33V238.25C180.16 239.162 180.521 240.036 181.163 240.682C181.806 241.329 182.678 241.695 183.59 241.7H185.64C186.552 241.695 187.424 241.329 188.067 240.682C188.709 240.036 189.07 239.162 189.07 238.25V235.33C189.07 234.418 188.709 233.544 188.067 232.898C187.424 232.251 186.552 231.885 185.64 231.88V231.88Z" stroke="white" stroke-width="2" stroke-linecap="round" stroke-linejoin="round" />
          </g>
          <g id="airship_body">
            <path d="M205 227.08C248.38 227.08 279.86 211.53 279.86 190.08C279.86 168.63 248.38 153.08 205 153.08C177.06 153.08 149.64 166.61 131.54 177.95C129.493 179.238 127.805 181.023 126.636 183.14C125.466 185.257 124.853 187.636 124.853 190.055C124.853 192.474 125.466 194.853 126.636 196.97C127.805 199.087 129.493 200.872 131.54 202.16C149.63 213.49 177.06 227.03 205 227.03" fill="#068E4D" />
            <path d="M205 227.08C248.38 227.08 279.86 211.53 279.86 190.08C279.86 168.63 248.38 153.08 205 153.08C177.06 153.08 149.64 166.61 131.54 177.95C129.493 179.238 127.805 181.023 126.636 183.14C125.466 185.257 124.853 187.636 124.853 190.055C124.853 192.474 125.466 194.853 126.636 196.97C127.805 199.087 129.493 200.872 131.54 202.16C149.63 213.54 177.06 227.08 205 227.08Z" stroke="white" stroke-width="2" />
            <path d="M204.99 186.09C176.76 186.09 148.93 181.85 132.19 186.09C128.24 187.09 126.19 188.75 126.11 190.43C126.028 188.159 126.546 185.908 127.612 183.901C128.678 181.894 130.253 180.204 132.18 179C148.92 168.5 176.76 154.32 204.99 154.32C249.8 154.32 278.63 170.32 278.63 190.07C278.63 190.19 278.63 190.31 278.63 190.44C278.26 182.49 249.52 186.09 204.99 186.09Z" fill="#36E69A" />
            <path d="M132.18 195.12C148.92 199.39 176.76 205.12 204.99 205.12C249.13 205.12 277.74 198.8 278.59 190.94C277.73 210.28 249.14 225.8 204.99 225.8C176.76 225.8 148.92 211.61 132.18 201.12C130.44 200.025 128.988 198.53 127.944 196.759C126.9 194.988 126.295 192.993 126.18 190.94C126.44 192.55 128.44 194.12 132.18 195.08" fill="#068E4D" />
            <g id="airship_center_section">
              <path d="M132.18 185.12C148.92 180.85 176.76 175.12 204.99 175.12C249.52 175.12 278.25 181.55 278.6 189.5C278.6 189.67 278.6 189.84 278.6 190.01C277.75 197.87 249.15 204.18 205 204.18C176.77 204.18 148.93 198.42 132.19 194.18C128.4 193.18 126.4 191.65 126.19 190.05V189.54C126.32 187.85 128.34 186.18 132.29 185.17" fill="#25B774">
                <animate attributeName="d" dur="2s" keySplines="0 0 0.58 1; 0 0 0.58 1" calcMode="spline" repeatCount="indefinite" values="
                             M132.18 185.12C148.92 180.85 176.77 180.5 205 180.5C249.53 180.5 278.25 181.55 278.6 189.5C278.6 189.67 278.6 189.84 278.6 190.01C277.75 197.87 249.15 209.5 205 209.5C176.77 209.5 148.93 198.42 132.19 194.18C128.4 193.18 126.4 191.65 126.19 190.05V189.54C126.32 187.85 128.34 186.18 132.29 185.17;
                             M132.18 185.12C147.5 176.5 176.77 168.5 205 168.5C249.53 168.5 278.25 181.55 278.6 189.5C278.6 189.67 278.6 189.84 278.6 190.01C277.75 197.87 249.15 201.5 205 201.5C176.77 201.5 148.93 198.42 132.19 194.18C128.4 193.18 126.4 191.65 126.19 190.05V189.54C126.32 187.85 128.34 186.18 132.29 185.17;
                             M132.18 185.12C148.92 180.85 176.77 180.5 205 180.5C249.53 180.5 278.25 181.55 278.6 189.5C278.6 189.67 278.6 189.84 278.6 190.01C277.75 197.87 249.15 209.5 205 209.5C176.77 209.5 148.93 198.42 132.19 194.18C128.4 193.18 126.4 191.65 126.19 190.05V189.54C126.32 187.85 128.34 186.18 132.29 185.17" />
              </path>
            </g>
          </g>
          <g id="airship_wings_second">
            <animateTransform attributeName="transform" type="translate" values="0 -2; 0 2; 0 -2" keySplines="0 0 0.58 1; 0 0 0.58 1" calcMode="spline" dur="2s" repeatCount="indefinite" />
            <path d="M123.23 173.34H132.39C132.823 173.34 133.252 173.425 133.651 173.591C134.051 173.757 134.414 174.001 134.72 174.307C135.026 174.614 135.268 174.978 135.432 175.378C135.597 175.778 135.681 176.207 135.68 176.64V182.35C135.681 182.783 135.597 183.212 135.432 183.612C135.268 184.012 135.026 184.376 134.72 184.683C134.414 184.989 134.051 185.233 133.651 185.399C133.252 185.565 132.823 185.65 132.39 185.65H115.57C115.22 185.65 114.884 185.511 114.637 185.263C114.389 185.016 114.25 184.68 114.25 184.33V182.33C114.25 179.943 115.198 177.654 116.886 175.966C118.574 174.278 120.863 173.33 123.25 173.33" fill="#068E4D" />
            <path d="M123.23 173.34H132.39C132.823 173.34 133.252 173.425 133.651 173.591C134.051 173.757 134.414 174.001 134.72 174.307C135.026 174.614 135.268 174.978 135.432 175.378C135.597 175.778 135.681 176.207 135.68 176.64V182.35C135.681 182.783 135.597 183.212 135.432 183.612C135.268 184.012 135.026 184.376 134.72 184.683C134.414 184.989 134.051 185.233 133.651 185.399C133.252 185.565 132.823 185.65 132.39 185.65H115.57C115.22 185.65 114.884 185.511 114.637 185.263C114.389 185.016 114.25 184.68 114.25 184.33V182.33C114.253 179.948 115.199 177.665 116.882 175.98C118.566 174.294 120.848 173.345 123.23 173.34V173.34Z" stroke="white" stroke-width="2" stroke-linecap="round" stroke-linejoin="round" />
            <path d="M123.23 207.39H132.39C132.823 207.39 133.252 207.305 133.651 207.139C134.051 206.973 134.414 206.729 134.72 206.423C135.026 206.116 135.268 205.752 135.432 205.352C135.597 204.952 135.681 204.523 135.68 204.09V198.38C135.681 197.947 135.597 197.518 135.432 197.118C135.268 196.718 135.026 196.354 134.72 196.047C134.414 195.741 134.051 195.497 133.651 195.331C133.252 195.165 132.823 195.08 132.39 195.08H115.57C115.22 195.08 114.884 195.219 114.637 195.467C114.389 195.714 114.25 196.05 114.25 196.4V198.4C114.25 200.787 115.198 203.076 116.886 204.764C118.574 206.452 120.863 207.4 123.25 207.4" fill="#068E4D" />
            <path d="M123.23 207.39H132.39C132.823 207.39 133.252 207.305 133.651 207.139C134.051 206.973 134.414 206.729 134.72 206.423C135.026 206.116 135.268 205.752 135.432 205.352C135.597 204.952 135.681 204.523 135.68 204.09V198.38C135.681 197.947 135.597 197.518 135.432 197.118C135.268 196.718 135.026 196.354 134.72 196.047C134.414 195.741 134.051 195.497 133.651 195.331C133.252 195.165 132.823 195.08 132.39 195.08H115.57C115.22 195.08 114.884 195.219 114.637 195.467C114.389 195.714 114.25 196.05 114.25 196.4V198.4C114.253 200.782 115.199 203.065 116.882 204.75C118.566 206.436 120.848 207.385 123.23 207.39V207.39Z" stroke="white" stroke-width="2" stroke-linecap="round" stroke-linejoin="round" />
          </g>
          <g id="airship_wings_first">
            <animateTransform attributeName="transform" type="translate" values="0 2; 0 -2; 0 2" dur="2s" keySplines="0 0 0.58 1; 0 0 0.58 1" calcMode="spline" repeatCount="indefinite" />
            <path id="Vector_17" d="M123.23 173.34H132.39C132.823 173.34 133.252 173.425 133.651 173.591C134.051 173.757 134.414 174.001 134.72 174.307C135.026 174.614 135.268 174.978 135.432 175.378C135.597 175.778 135.681 176.207 135.68 176.64V182.35C135.681 182.783 135.597 183.212 135.432 183.612C135.268 184.012 135.026 184.376 134.72 184.683C134.414 184.989 134.051 185.233 133.651 185.399C133.252 185.565 132.823 185.65 132.39 185.65H115.57C115.22 185.65 114.884 185.511 114.637 185.263C114.389 185.016 114.25 184.68 114.25 184.33V182.33C114.25 179.943 115.198 177.654 116.886 175.966C118.574 174.278 120.863 173.33 123.25 173.33" fill="#068E4D" />
            <path id="Vector_18" d="M123.23 173.34H132.39C132.823 173.34 133.252 173.425 133.651 173.591C134.051 173.757 134.414 174.001 134.72 174.307C135.026 174.614 135.268 174.978 135.432 175.378C135.597 175.778 135.681 176.207 135.68 176.64V182.35C135.681 182.783 135.597 183.212 135.432 183.612C135.268 184.012 135.026 184.376 134.72 184.683C134.414 184.989 134.051 185.233 133.651 185.399C133.252 185.565 132.823 185.65 132.39 185.65H115.57C115.22 185.65 114.884 185.511 114.637 185.263C114.389 185.016 114.25 184.68 114.25 184.33V182.33C114.253 179.948 115.199 177.665 116.882 175.98C118.566 174.294 120.848 173.345 123.23 173.34V173.34Z" stroke="white" stroke-width="2" stroke-linecap="round" stroke-linejoin="round" />
            <path id="Vector_19" d="M123.23 207.39H132.39C132.823 207.39 133.252 207.305 133.651 207.139C134.051 206.973 134.414 206.729 134.72 206.423C135.026 206.116 135.268 205.752 135.432 205.352C135.597 204.952 135.681 204.523 135.68 204.09V198.38C135.681 197.947 135.597 197.518 135.432 197.118C135.268 196.718 135.026 196.354 134.72 196.047C134.414 195.741 134.051 195.497 133.651 195.331C133.252 195.165 132.823 195.08 132.39 195.08H115.57C115.22 195.08 114.884 195.219 114.637 195.467C114.389 195.714 114.25 196.05 114.25 196.4V198.4C114.25 200.787 115.198 203.076 116.886 204.764C118.574 206.452 120.863 207.4 123.25 207.4" fill="#068E4D" />
            <path id="Vector_20" d="M123.23 207.39H132.39C132.823 207.39 133.252 207.305 133.651 207.139C134.051 206.973 134.414 206.729 134.72 206.423C135.026 206.116 135.268 205.752 135.432 205.352C135.597 204.952 135.681 204.523 135.68 204.09V198.38C135.681 197.947 135.597 197.518 135.432 197.118C135.268 196.718 135.026 196.354 134.72 196.047C134.414 195.741 134.051 195.497 133.651 195.331C133.252 195.165 132.823 195.08 132.39 195.08H115.57C115.22 195.08 114.884 195.219 114.637 195.467C114.389 195.714 114.25 196.05 114.25 196.4V198.4C114.253 200.782 115.199 203.065 116.882 204.75C118.566 206.436 120.848 207.385 123.23 207.39V207.39Z" stroke="white" stroke-width="2" stroke-linecap="round" stroke-linejoin="round" />
          </g>
          <g id="exhaust">
            <path d="M106.25 179.49H84.05" stroke="white" stroke-width="2" stroke-miterlimit="10" stroke-linecap="round">
              <animate id="a_exhaust_1" attributeName="d" dur="150ms" repeatCount="indefinite" values="M106.25 179.49H84.05;
                           M106.25 179.49H94.05;
                           M106.25 179.49H84.05" />
            </path>
            <path d="M106.25 201.23H84.05" stroke="white" stroke-width="2" stroke-miterlimit="10" stroke-linecap="round">
              <animate id="a_exhaust_3" attributeName="d" dur="150ms" begin="a_exhaust_1.begin + 200ms" repeatCount="indefinite" values="M106.25 201.23H84.05;
                           M106.25 201.23H94.05;
                           M106.25 201.23H84.05" />
            </path>
            <path d="M106.25 190.98H68.77" stroke="white" stroke-width="2" stroke-miterlimit="10" stroke-linecap="round">
              <animate id="a_exhaust_2" attributeName="d" dur="150ms" begin="a_exhaust_1.begin + 100ms" repeatCount="indefinite" values="M106.25 190.98H68.77;
                           M106.25 190.98H78.77;
                           M106.25 190.98H68.77" />
            </path>
          </g>
        </g>
        <path d="M289.94 328.88H244.88L212.8 297.58C212.459 297.292 212.027 297.134 211.58 297.134C211.133 297.134 210.701 297.292 210.36 297.58L200.16 307.81C199.847 308.08 199.448 308.229 199.035 308.229C198.622 308.229 198.223 308.08 197.91 307.81L178.91 287.64C178.477 287.273 177.928 287.072 177.36 287.072C176.792 287.072 176.243 287.273 175.81 287.64L149.39 313.28C149.078 313.552 148.679 313.702 148.265 313.702C147.851 313.702 147.452 313.552 147.14 313.28L144.51 310.36C144.195 310.071 143.783 309.911 143.355 309.911C142.927 309.911 142.515 310.071 142.2 310.36L124.63 330H80.78" stroke="white" stroke-width="2" stroke-miterlimit="10" stroke-linecap="round">
          <animate attributeName="d" dur="500ms" begin="a_motion_cloud_right.end - 500ms" fill="freeze" values="M 289.94 328.88 L 244.88 328.88 L 212.8 297.58 C 212.459 297.292 212.027 297.134 211.58 297.134 C 211.133 297.134 210.701 297.292 210.36 297.58 L 200.16 307.81 C 199.847 308.08 199.448 308.229 199.035 308.229 C 198.622 308.229 198.223 308.08 197.91 307.81 C 191.577 301.087 185.243 294.363 178.91 287.64 C 178.477 287.273 177.928 287.072 177.36 287.072 C 176.792 287.072 176.243 287.273 175.81 287.64 C 167.003 296.187 158.197 304.733 149.39 313.28 C 149.078 313.552 148.679 313.702 148.265 313.702 C 147.851 313.702 147.452 313.552 147.14 313.28 C 146.263 312.307 145.387 311.333 144.51 310.36 C 144.195 310.071 143.783 309.911 143.355 309.911 C 142.927 309.911 142.515 310.071 142.2 310.36 C 136.343 316.907 130.487 323.453 124.63 330 L 80.78 330;M 289.94 329 L 271.982 329 L 254.024 329 C 248.038 329 242.052 329 236.066 329 C 230.08 329 224.094 329 218.108 329 L 200.15 329 C 199.29 329 198.59 329 197.9 329 C 191.567 329 185.233 329 178.9 329 C 178.525 329 178.198 329 177.905 329 C 177.612 329 177.353 329 177.114 329 C 176.874 329 176.655 329 176.44 329 C 176.226 329 176.018 329 175.8 329 C 165.033 329 154.267 329 143.5 329 C 143.282 329 143.085 329 142.904 329 C 142.722 329 142.557 329 142.403 329 C 142.249 329 142.106 329 141.97 329 C 141.834 329 141.704 329 141.575 329 C 141.447 329 141.32 329 141.19 329 L 80.78 329" />
        </path>
      </g>
    </g>
    <g id="to">
      <defs>
        <clipPath id="cp_window">
          <path d="M275 225.43H257.87C253.22 225.409 248.766 223.548 245.484 220.254C242.201 216.96 240.355 212.501 240.35 207.85V170C240.355 165.349 242.201 160.89 245.484 157.596C248.766 154.302 253.22 152.441 257.87 152.42H275C279.649 152.444 284.099 154.306 287.38 157.6C290.661 160.893 292.505 165.351 292.51 170V207.83C292.507 212.481 290.665 216.943 287.384 220.24C284.103 223.538 279.651 225.404 275 225.43V225.43Z" />
        </clipPath>
      </defs>

      <g clip-path="url(#cp_window)">
        <g id="clouds-in-window" opacity="0" transform="translate(266 186) scale(0.6 0.6) translate(-266 -186) ">
          <animate attributeName="opacity" fill="freeze" begin="a_interior.begin + 130ms" values="0;1" dur="230ms" />
          <animateTransform attributeName="transform" type="translate" values="0 0; 56 0; 0 0" dur="5s" repeatCount="2" additive="sum" />
          <path id="Vector" d="M248.18 198.34H311.09" stroke="white" stroke-width="2" stroke-miterlimit="10" stroke-linecap="round" />
          <path id="Vector_2" d="M221 188.08H256.29C256.29 184.791 257.596 181.637 259.922 179.312C262.247 176.986 265.401 175.68 268.69 175.68C271.979 175.68 275.133 176.986 277.458 179.312C279.784 181.637 281.09 184.791 281.09 188.08H299.02" stroke="white" stroke-width="2" stroke-miterlimit="10" stroke-linecap="round" />
        </g>
        <path opacity="0" id="window_2" d="M275 225.43H257.87C253.22 225.409 248.766 223.548 245.484 220.254C242.201 216.96 240.355 212.501 240.35 207.85V170C240.355 165.349 242.201 160.89 245.484 157.596C248.766 154.302 253.22 152.441 257.87 152.42H275C279.649 152.444 284.099 154.306 287.38 157.6C290.661 160.893 292.505 165.351 292.51 170V207.83C292.507 212.481 290.665 216.943 287.384 220.24C284.103 223.538 279.651 225.404 275 225.43V225.43Z" stroke="white" stroke-width="2">
          <animate id="a_window" attributeType="CSS" attributeName="opacity" values="0; 1" dur="1s" fill="freeze" begin="a_motion_cloud_right.end - 500ms" />
          <animate attributeName="d" dur="500ms" fill="freeze" begin="a_motion_cloud_right.end - 500ms" values="M 204.25 241.7 C 205.162 241.695 206.034 241.329 206.677 240.682 C 207.319 240.036 207.68 239.162 207.68 238.25 C 207.68 237.277 207.68 236.303 207.68 235.33 C 207.681 234.878 207.594 234.431 207.422 234.013 C 207.25 233.595 206.998 233.215 206.68 232.895 C 206.361 232.574 205.983 232.32 205.566 232.146 C 205.149 231.972 204.702 231.881 204.25 231.88 C 204.25 231.88 204.25 231.88 204.25 231.88 C 204.25 231.88 204.25 231.88 204.25 231.88 L 202.2 231.88 C 201.288 231.885 200.416 232.251 199.773 232.898 C 199.131 233.544 198.77 234.418 198.77 235.33 L 198.77 238.25 C 198.77 239.162 199.131 240.036 199.773 240.682 C 200.416 241.329 201.288 241.695 202.2 241.7 L 204.25 241.7;
                                                                                                                M 275 225.43 C 275 225.43 275 225.43 275 225.43 C 275 225.43 275 225.43 275 225.43 C 279.651 225.404 284.103 223.538 287.384 220.24 C 290.665 216.943 292.507 212.481 292.51 207.83 C 292.51 203.627 292.51 199.423 292.51 195.22 C 292.51 191.017 292.51 186.813 292.51 182.61 C 292.51 178.407 292.51 174.203 292.51 170 C 292.505 165.351 290.661 160.893 287.38 157.6 C 284.099 154.306 279.649 152.444 275 152.42 L 257.87 152.42 C 253.22 152.441 248.766 154.302 245.484 157.596 C 242.201 160.89 240.355 165.349 240.35 170 L 240.35 207.85 C 240.355 212.501 242.201 216.96 245.484 220.254 C 248.766 223.548 253.22 225.409 257.87 225.43 L 275 225.43;" />
        </path>
      </g>
      <g id="interior">
        <animateTransform id="a_interior" attributeName="transform" type="translate" values="-80 0; 0 0" dur="450ms" begin="a_window.end - 250ms" calcMode="spline" keySplines="0 0 0.22 1" />
        <g id="stuff" opacity="0">
          <animate attributeName="opacity" fill="freeze" begin="a_interior.begin + 230ms" values="0;1" dur="230ms" />
          <animateTransform attributeName="transform" type="translate" values="-80 0; 0 0" dur="1300ms" begin="a_interior.begin + 230ms" calcMode="spline" keySplines="0 0 0.22 1" />
          <path id="Vector_3" d="M91.14 327.79C90.5631 327.739 90.0296 327.463 89.6552 327.021C89.2807 326.579 89.0956 326.007 89.14 325.43L102.8 132.26C103.9 116.77 98 110.34 94.05 107.79C93.8264 107.639 93.6532 107.425 93.5526 107.174C93.4521 106.924 93.4288 106.649 93.4858 106.386C93.5429 106.122 93.6776 105.881 93.8726 105.695C94.0676 105.509 94.314 105.385 94.58 105.34C103 104 122.18 104 120 134.19L106.43 326.67C106.379 327.245 106.104 327.777 105.664 328.151C105.225 328.525 104.656 328.712 104.08 328.67L91.14 327.79Z" fill="white" />
          <path id="Vector_4" d="M124.5 328.17C124.211 328.166 123.926 328.105 123.66 327.991C123.395 327.877 123.155 327.712 122.953 327.504C122.752 327.297 122.593 327.053 122.486 326.784C122.379 326.516 122.326 326.229 122.33 325.94L124.57 132.31C124.76 116.78 118.5 110.7 114.41 108.4C114.18 108.261 113.997 108.057 113.884 107.814C113.771 107.571 113.733 107.299 113.774 107.034C113.816 106.769 113.936 106.522 114.119 106.326C114.302 106.129 114.539 105.991 114.8 105.93C123.16 104.03 142.29 102.93 141.95 133.21L139.7 326.14C139.697 326.429 139.638 326.714 139.525 326.98C139.412 327.246 139.248 327.487 139.042 327.69C138.835 327.892 138.591 328.052 138.323 328.16C138.056 328.268 137.769 328.323 137.48 328.32L124.5 328.17Z" fill="white" />
        </g>
        <g id="chair" opacity="0">
          <animate attributeName="opacity" fill="freeze" begin="a_interior.begin" values="0;1" dur="350ms" />
          <path id="Vector_5" d="M257.5 259.82H196.76V245.63H251.85C254.479 245.635 256.999 246.684 258.855 248.546C260.711 250.408 261.753 252.931 261.75 255.56C261.747 256.686 261.299 257.766 260.502 258.562C259.706 259.359 258.626 259.807 257.5 259.81" fill="#A67EE5" />
          <path id="Vector_6" d="M257.5 259.82H196.76V245.63H251.85C254.479 245.635 256.999 246.684 258.855 248.546C260.711 250.408 261.753 252.931 261.75 255.56C261.75 256.688 261.303 257.77 260.506 258.569C259.709 259.367 258.628 259.817 257.5 259.82Z" stroke="white" stroke-width="2" stroke-miterlimit="10" />
          <path id="Vector_7" d="M185.47 328.31H171.5L165.19 286.72H179.16L185.47 328.31Z" fill="#A67EE5" />
          <path id="Vector_8" d="M185.47 328.31H171.5L165.19 286.72H179.16L185.47 328.31Z" stroke="white" stroke-width="2" stroke-miterlimit="10" />
          <path id="Vector_9" d="M235.03 328.31H221.06L214.76 286.72H228.72L235.03 328.31Z" fill="#A67EE5" />
          <path id="Vector_10" d="M235.03 328.31H221.06L214.76 286.72H228.72L235.03 328.31Z" stroke="white" stroke-width="2" stroke-miterlimit="10" />
          <path id="Vector_11" d="M281.33 272.45H225.44C224.099 272.45 222.803 271.968 221.788 271.093C220.773 270.217 220.107 269.006 219.91 267.68L209.05 195.44C211.935 193.051 213.989 189.808 214.915 186.178C215.841 182.548 215.592 178.717 214.204 175.238C212.816 171.758 210.36 168.808 207.19 166.812C204.019 164.816 200.298 163.877 196.56 164.13H141.48L141.16 267L156.93 290.35L204.12 298.74C205.472 299.235 206.9 299.489 208.34 299.49H281.34C284.928 299.49 288.37 298.065 290.907 295.527C293.445 292.99 294.87 289.548 294.87 285.96C294.87 282.372 293.445 278.93 290.907 276.393C288.37 273.855 284.928 272.43 281.34 272.43" fill="#A67EE5" />
          <path id="Vector_12" d="M281.33 272.45H225.44C224.099 272.45 222.803 271.968 221.788 271.093C220.773 270.217 220.107 269.006 219.91 267.68L209.05 195.44C211.935 193.051 213.989 189.808 214.915 186.178C215.841 182.548 215.592 178.717 214.204 175.238C212.816 171.758 210.36 168.808 207.19 166.812C204.019 164.816 200.298 163.877 196.56 164.13H141.48L141.16 267L156.93 290.35L204.12 298.74C205.472 299.235 206.9 299.489 208.34 299.49H281.34C284.836 299.354 288.143 297.87 290.568 295.348C292.992 292.826 294.346 289.464 294.345 285.965C294.344 282.467 292.987 279.105 290.561 276.585C288.134 274.065 284.826 272.583 281.33 272.45V272.45Z" stroke="white" stroke-width="2" stroke-miterlimit="10" />
          <path id="Vector_13" d="M162.42 267.69L151.56 195.45C153.859 193.547 155.641 191.095 156.738 188.319C157.836 185.544 158.215 182.536 157.839 179.576C157.463 176.615 156.346 173.797 154.589 171.384C152.833 168.971 150.496 167.041 147.794 165.773C145.092 164.505 142.114 163.94 139.136 164.132C136.157 164.323 133.276 165.263 130.758 166.866C128.241 168.469 126.169 170.682 124.736 173.3C123.303 175.918 122.554 178.856 122.56 181.84C122.562 183.619 122.829 185.389 123.35 187.09L138.65 289C139.086 291.928 140.558 294.602 142.799 296.536C145.039 298.47 147.9 299.536 150.86 299.54H223.86C227.383 299.444 230.73 297.977 233.189 295.451C235.647 292.925 237.022 289.54 237.022 286.015C237.022 282.49 235.647 279.105 233.189 276.579C230.73 274.053 227.383 272.586 223.86 272.49H167.95C166.61 272.484 165.316 271.998 164.302 271.122C163.288 270.245 162.62 269.035 162.42 267.71" fill="#A67EE5" />
          <path id="Vector_14" d="M162.42 267.69L151.56 195.45C153.859 193.547 155.641 191.095 156.738 188.319C157.836 185.544 158.215 182.536 157.839 179.576C157.463 176.615 156.346 173.797 154.589 171.384C152.833 168.971 150.496 167.041 147.794 165.773C145.092 164.505 142.114 163.94 139.136 164.132C136.157 164.323 133.276 165.263 130.758 166.866C128.241 168.469 126.169 170.682 124.736 173.3C123.303 175.918 122.554 178.856 122.56 181.84C122.562 183.619 122.829 185.389 123.35 187.09L138.65 289C139.086 291.928 140.558 294.602 142.799 296.536C145.039 298.47 147.9 299.536 150.86 299.54H223.86C227.383 299.444 230.73 297.977 233.189 295.451C235.647 292.925 237.022 289.54 237.022 286.015C237.022 282.49 235.647 279.105 233.189 276.579C230.73 274.053 227.383 272.586 223.86 272.49H167.95C166.607 272.483 165.31 271.995 164.296 271.114C163.281 270.234 162.616 269.019 162.42 267.69Z" stroke="white" stroke-width="2" stroke-miterlimit="10" />
          <path id="Vector_15" d="M206.26 259.82H134.26L132.13 245.63H200.6C203.229 245.635 205.749 246.684 207.605 248.546C209.461 250.408 210.503 252.931 210.5 255.56C210.497 256.686 210.049 257.766 209.252 258.562C208.456 259.359 207.376 259.807 206.25 259.81" fill="#A67EE5" />
          <path id="Vector_16" d="M206.26 259.82H134.26L132.13 245.63H200.6C203.229 245.635 205.749 246.684 207.605 248.546C209.461 250.408 210.503 252.931 210.5 255.56C210.5 256.686 210.054 257.767 209.259 258.565C208.465 259.364 207.386 259.815 206.26 259.82Z" stroke="white" stroke-width="2" stroke-miterlimit="10" />
          <path id="Vector_17" d="M151.57 195.44H209.05" stroke="white" stroke-width="2" stroke-miterlimit="10" stroke-linecap="round" />
        </g>
        <g id="palm" opacity="0">
          <animate attributeName="opacity" fill="freeze" begin="a_interior.begin + 130ms" values="0;1" dur="230ms" />
          <animateTransform attributeName="transform" type="rotate" values="0 129 328; 20 129 328; 0 129 328" dur="5s" additive="sum" repeatCount="2" />
          <path id="Vector_18" d="M79.18 194C85.4261 202.316 90.6596 211.346 94.77 220.9C87.606 213.464 80.9004 205.599 74.69 197.35C68.4883 189.072 62.7881 180.43 57.62 171.47C65.6734 178.1 72.9108 185.663 79.18 194" fill="#36E69A" />
          <path id="Vector_19" d="M80.94 214.39C89.3383 220.276 96.9939 227.156 103.74 234.88C94.8077 230.187 86.1775 224.94 77.9 219.17C69.7048 213.439 61.8823 207.194 54.48 200.47C63.8466 203.987 72.7358 208.663 80.94 214.39" fill="#36E69A" />
          <path id="Vector_20" d="M93.66 205.48C96.4274 215.47 99.7935 225.284 103.74 234.87C103.5 224.55 101.988 214.3 99.24 204.35C96.3865 194.098 92.3388 184.217 87.18 174.91C88.7226 185.22 90.8832 195.429 93.65 205.48" fill="#36E69A" />
          <path id="Vector_21" d="M107.32 213.52C107.377 223.776 108.065 234.019 109.38 244.19C111.898 234.372 113.161 224.275 113.14 214.14C113.075 203.564 111.732 193.034 109.14 182.78C107.854 192.976 107.229 203.244 107.27 213.52" fill="#25B774" />
          <path id="Vector_22" d="M83.08 229.56C92.4142 233.336 101.245 238.253 109.37 244.2C99.7922 241.753 90.3853 238.679 81.21 235C72.1574 231.339 63.3493 227.1 54.84 222.31C64.5308 223.516 74.0258 225.966 83.09 229.6" fill="#25B774" />
          <path id="Vector_23" d="M88.06 243.83C97.6806 246.377 106.941 250.13 115.62 255C105.908 253.803 96.2919 251.932 86.84 249.4C77.5057 246.893 68.346 243.777 59.42 240.07C69.0895 240.093 78.7168 241.347 88.07 243.8" fill="#25B774" />
          <path id="Vector_24" d="M118.71 224.79C117.033 234.797 115.997 244.901 115.61 255.04C119.756 245.942 122.72 236.351 124.43 226.5C126.18 216.201 126.657 205.726 125.85 195.31C122.772 204.955 120.383 214.807 118.7 224.79" fill="#25B774" />
          <path id="Vector_25" d="M98.86 262C108.367 264.957 117.462 269.103 125.93 274.34C116.275 272.737 106.742 270.468 97.4 267.55C88.1811 264.661 79.1617 261.17 70.4 257.1C80.056 257.521 89.6193 259.167 98.86 262Z" fill="#068E4D" />
          <path id="Vector_26" d="M130.27 244.29C128.179 254.22 126.73 264.274 125.93 274.39C130.454 265.47 133.815 256.006 135.93 246.23C138.105 236.014 139.015 225.569 138.64 215.13C135.168 224.64 132.375 234.385 130.28 244.29" fill="#068E4D" />
          <path id="Vector_27" d="M108.9 280.69C118.279 284.044 127.196 288.57 135.44 294.16C125.858 292.144 116.426 289.471 107.21 286.16C98.1172 282.886 89.2483 279.021 80.66 274.59C90.2934 275.409 99.7831 277.452 108.9 280.67" fill="#068E4D" />
          <path id="Vector_28" d="M141 264.26C138.499 274.096 136.635 284.084 135.42 294.16C140.302 285.429 144.049 276.11 146.57 266.43C149.173 256.3 150.516 245.888 150.57 235.43C146.702 244.801 143.504 254.436 141 264.26" fill="#068E4D" />
          <path id="Vector_29" d="M92.62 217.67C115.835 252.089 134.92 289.121 149.48 328" stroke="#36E69A" stroke-width="2" stroke-linecap="round" stroke-linejoin="round" />
        </g>
      </g>
      <g id="Group_2" opacity="0">
        <animate attributeName="opacity" fill="freeze" begin="a_motion_cloud_right.end - 500ms" values=" 0;1" dur="500ms" />
        <path id="Vector_30" d="M72.03 329H295.52" stroke="white" stroke-width="2" stroke-miterlimit="10" stroke-linecap="round" />
      </g>
    </g>
  </svg>
